<svg height="50" viewBox="0 0 38 50" fill="none" xmlns="http://www.w3.org/2000/svg">
<path d="M0 4.81489L8.5443 49.1094L5.59612 19.4624L20.1668 18.5125L20.1397 13.5505L25.89 0L20.4038 9.02579L0 4.81489Z" fill="#FFFFFF"/>
<path d="M23.2993 26.8851L25.89 0.00350952L21.5018 19.9439L11.6552 20.4686L12.4434 30.742L8.54431 49.1094L14.5978 29.0771L23.2993 26.8851Z" fill="#FFFFFF"/>
<path d="M25.0118 33.2283L25.2875 27.9801L17.2648 29.8654L17.2488 35.7884L8.54431 49.1094L19.4293 35.2441L25.0118 33.2283ZM26.4734 30.8244L33.9247 28.449L34.6823 22.157L26.6998 23.2089L26.4734 30.8244ZM29.6661 21.8412L35.1829 21.1298L35.9767 15.9695L31.9204 15.7822L25.89 0L30.1225 15.5477L29.6661 21.8412Z" fill="#FFFFFF"/>
<path d="M37.3694 15.2098L38 10.4371L33.2082 9.08453L25.89 0L33.1615 11.265L32.9496 14.7796L37.3694 15.2098Z" fill="#FFFFFF"/>
</svg>
