<svg height="27" viewBox="0 0 99 27" fill="none" xmlns="http://www.w3.org/2000/svg">
<path d="M0 0.955649L6.99948 26.2674H14.5414L21.5408 0.955649H16.6334L11.0287 22.0316H10.5121L4.90738 0.955649H0ZM23.2197 3.12523C23.2197 4.95904 24.6144 6.22463 26.4224 6.22463C28.2304 6.22463 29.6509 4.95904 29.6509 3.12523C29.6509 1.26559 28.2304 0 26.4224 0C24.6144 0 23.2197 1.26559 23.2197 3.12523ZM28.6953 8.31672H24.1495V26.2674H28.6953V8.31672ZM32.3887 13.3791C32.3887 16.7109 34.6616 18.2606 39.6981 18.958L40.2405 19.0355C42.2035 19.2679 44.0373 19.4229 44.0373 20.766C44.0373 22.1607 42.3326 22.9356 40.5763 22.9356C38.2518 22.9356 35.8756 21.7733 34.7391 19.4229L31.0973 21.6958C32.7503 24.227 35.514 26.7582 40.4472 26.7582C45.2254 26.7582 48.5314 24.2011 48.5314 20.6885C48.5314 17.4083 46.3877 15.9619 40.628 15.1871L40.0856 15.1096C38.2259 14.8771 36.8829 14.6447 36.8829 13.3532C36.8829 12.2685 37.8127 11.5711 39.4399 11.5711C41.8419 11.5711 43.6499 12.94 45.0188 14.5672L48.299 11.9843C45.8711 9.45317 43.2883 7.82598 39.5948 7.82598C35.4365 7.82598 32.3887 10.0472 32.3887 13.3791ZM50.546 3.12523C50.546 4.95904 51.9666 6.22463 53.7746 6.22463C55.5826 6.22463 56.9773 4.95904 56.9773 3.12523C56.9773 1.26559 55.5826 0 53.7746 0C51.9666 0 50.546 1.26559 50.546 3.12523ZM56.0475 8.31672H51.4759V26.2674H56.0475V8.31672ZM59.3018 17.2792C59.3018 22.9356 63.4086 26.7582 68.7034 26.7582C73.9723 26.7582 78.1049 22.9356 78.1049 17.2792C78.1049 11.6486 73.9723 7.82598 68.7034 7.82598C63.4086 7.82598 59.3018 11.6486 59.3018 17.2792ZM63.8476 17.2792C63.8476 14.1023 65.8106 12.0102 68.7034 12.0102C71.5961 12.0102 73.5333 14.1023 73.5333 17.2792C73.5333 20.4819 71.5961 22.574 68.7034 22.574C65.8106 22.574 63.8476 20.4819 63.8476 17.2792ZM81.3592 8.31672V26.2674H85.905V16.995C85.905 13.8182 87.4547 12.0102 90.3992 12.0102C93.0078 12.0102 94.4542 13.4824 94.4542 15.9877V26.2674H99V15.5487C99 10.8996 96.0039 8.03261 92.0263 8.03261C88.7203 8.03261 87.0673 9.55648 86.3441 11.2095H85.8276V8.31672H81.3592Z" fill="#1366A0"/>
</svg>
