<svg height="50" width="38" viewBox="0 0 38 50" fill="none" xmlns="http://www.w3.org/2000/svg">
  <path d="m0 4.815 8.544 44.294-2.948-29.647 14.57-.95-.026-4.962L25.89 0l-5.486 9.026L0 4.815Z" fill="#FFF"/>
  <path d="M23.3 26.885 25.89.004l-4.388 19.94-9.847.525.788 10.273-3.899 18.367 6.054-20.032 8.701-2.192Z" fill="#FFF"/>
  <path d="m25.012 33.228.276-5.248-8.023 1.885-.016 5.923L8.544 49.11 19.43 35.244l5.583-2.016Zm1.461-2.404 7.452-2.375.757-6.292-7.982 1.052-.227 7.615Zm3.193-8.983 5.517-.711.794-5.16-4.057-.188L25.89 0l4.232 15.548-.456 6.293Z" fill="#FFF"/>
  <path d="m37.37 15.21.63-4.773-4.792-1.352L25.89 0l7.271 11.265-.211 3.515 4.42.43Z" fill="#FFF"/>
</svg>